Land_normalized_Motion_pl05
version=1
nRows=18
nColumns=43
inDegrees=yes
endheader
time		pelvis_tilt		pelvis_list		pelvis_rotation		pelvis_tx		pelvis_ty		pelvis_tz		hip_flexion_r		hip_adduction_r		hip_rotation_r		knee_angle_r		ankle_angle_r		subtalar_angle_r		mtp_angle_r		hip_flexion_l		hip_adduction_l		hip_rotation_l		knee_angle_l		ankle_angle_l		subtalar_angle_l		mtp_angle_l		lumbar_extension		lumbar_bending		lumbar_rotation		neck_flexion		neck_lateral_bending		neck_rotation		arm_flex_r		arm_add_r		arm_rot_r		elbow_flex_r		pro_sup_r		wrist_flex_r		wrist_dev_r		hand_finger_flex_r		arm_flex_l		arm_add_l		arm_rot_l		elbow_flex_l		pro_sup_l		wrist_flex_l		wrist_dev_l		hand_finger_flex_l		
1.202500		-4.332670		13.680547		93.564792		0.007806		1.027023		0.528832		15.837555		-7.886471		-13.852942		-28.639145		-26.159747		-3.625378		22.045923		15.992936		0.161640		-8.287444		-27.955057		-20.538463		-8.169768		34.030590		-43.125675		-4.023829		-4.828695		-35.434673		1.850539		0.920502		-66.892080		-15.521325		-39.517349		56.234171		84.418925		-20.720099		3.738658		35.778655		-71.905353		-20.839353		-33.358615		68.698236		105.619730		-19.555671		4.705370		85.405503		
1.205152		-4.413408		13.966179		93.717947		0.007545		1.016089		0.525363		16.092949		-8.037920		-13.567245		-29.938817		-26.410839		-3.608061		22.094599		16.457346		0.203510		-8.235893		-29.502196		-20.429721		-8.219254		34.122019		-43.694181		-3.977569		-4.972024		-34.496544		1.893300		0.940865		-66.359112		-16.000081		-39.510005		56.542421		84.519005		-20.711596		3.720620		35.772725		-71.343647		-21.428567		-33.344111		68.920669		105.686657		-19.536186		4.688009		85.438683		
1.207803		-4.480967		14.109721		93.865179		0.007291		1.004700		0.521959		16.576929		-8.172235		-13.182798		-31.355952		-26.646981		-3.658617		22.179975		17.123970		0.277923		-7.990490		-31.159311		-20.146032		-8.261944		34.244851		-44.107306		-3.924470		-5.113125		-33.584287		1.925606		0.899490		-65.856281		-16.456828		-39.550060		56.969261		84.636397		-20.707253		3.700309		35.762877		-70.766773		-22.010196		-33.395508		69.169750		105.775473		-19.536418		4.679611		85.536486		
1.210455		-4.462044		13.771800		94.025472		0.007063		0.992214		0.518656		17.714699		-8.231657		-12.686379		-32.932652		-26.988704		-3.904928		22.395676		18.461546		0.326302		-7.533116		-33.061679		-19.780074		-8.282245		34.449748		-43.971793		-3.817785		-5.227838		-32.833157		1.914141		0.768682		-65.356515		-16.883939		-39.653433		57.445433		84.830129		-20.675350		3.748294		35.745905		-70.154293		-22.598774		-33.469703		69.362430		105.975089		-19.565044		4.712304		85.846375		
1.213106		-4.549717		14.057702		94.177947		0.006769		0.981026		0.515184		17.986560		-8.383435		-12.376737		-34.137005		-27.437314		-3.884254		22.427394		18.994765		0.393176		-7.489475		-34.776898		-19.761704		-8.293890		34.518772		-44.551142		-3.772569		-5.367720		-31.839575		1.974761		0.767908		-64.766830		-17.461115		-39.555216		57.821388		84.901436		-20.609165		3.754995		35.757425		-69.550258		-23.298005		-33.385694		69.636472		106.090618		-19.564340		4.688682		85.940415		
1.215758		-4.595507		14.259558		94.326830		0.006602		0.969503		0.511807		18.420893		-8.453434		-11.924606		-35.396324		-27.782666		-3.927872		22.497313		19.656524		0.447627		-7.275353		-36.525891		-19.767708		-8.272248		34.599218		-45.047019		-3.704885		-5.483766		-30.776713		2.022621		0.707539		-64.193120		-18.018445		-39.473472		58.298595		84.939419		-20.523714		3.767444		35.783874		-68.931661		-23.990134		-33.371101		69.936711		106.234904		-19.591498		4.668148		86.086166		
1.218409		-4.596739		14.421384		94.447153		0.006328		0.957854		0.508422		18.902194		-8.453197		-11.405354		-36.632114		-27.822017		-3.980379		22.616625		20.395593		0.473923		-7.053953		-38.296604		-19.918826		-8.208797		34.672164		-45.484705		-3.597467		-5.557895		-29.767804		2.069942		0.624217		-63.599402		-18.640021		-39.382736		58.754764		84.948143		-20.432484		3.796534		35.816791		-68.267955		-24.682479		-33.302142		70.247244		106.409103		-19.616435		4.646770		86.259690		
1.221061		-4.492743		14.163692		94.526291		0.006167		0.945270		0.505082		19.947887		-8.324181		-10.682623		-38.058154		-27.227421		-3.821687		22.966615		21.682745		0.422814		-6.791106		-40.157561		-20.100265		-8.117145		34.831570		-45.431646		-3.455446		-5.535784		-28.909825		2.077151		0.464836		-63.014510		-19.246532		-39.285224		59.215884		84.812242		-20.335226		3.883534		35.869089		-67.557286		-25.416641		-33.217063		70.505737		106.778864		-19.742833		4.664440		86.771665		
1.223712		-4.343822		13.857630		94.577697		0.006134		0.932551		0.501802		21.067433		-8.095424		-9.868123		-39.583578		-25.949704		-3.626905		23.437611		23.027597		0.335547		-6.496195		-41.968834		-20.285787		-8.011078		35.015203		-45.327459		-3.304880		-5.470813		-28.029620		2.086680		0.314559		-62.409078		-19.890122		-39.123421		59.687807		84.653289		-20.247864		3.965979		35.921842		-66.815562		-26.194414		-33.100325		70.756429		107.185176		-19.905128		4.691383		87.378885		
1.226364		-4.221281		14.126457		94.626214		0.006173		0.920957		0.498550		21.439218		-7.796879		-9.145034		-41.048023		-23.876292		-3.648404		23.802938		23.643432		0.256688		-6.168368		-43.580195		-20.374895		-7.900845		35.090528		-45.904405		-3.147011		-5.427153		-26.821557		2.149519		0.254474		-61.744391		-20.629235		-38.869890		60.203052		84.660821		-20.172903		3.955524		35.960469		-66.085249		-26.987885		-32.955668		71.103268		107.349866		-19.939750		4.665806		87.559414		
1.229015		-4.086849		13.947800		94.658220		0.006136		0.908331		0.495136		22.374471		-7.559910		-8.339492		-42.930002		-20.239645		-2.347274		24.251219		24.790304		0.187924		-5.900804		-45.324500		-19.751833		-7.507233		35.298868		-45.912264		-3.011320		-5.318385		-25.958354		2.158865		0.061875		-61.156409		-21.307071		-38.654507		60.730157		84.444558		-20.203333		3.947118		36.040912		-65.303094		-27.825855		-32.791373		71.408245		107.714719		-20.099218		4.709009		88.097331		
1.231667		-3.966070		13.714076		94.704390		0.006060		0.895575		0.491755		23.344257		-7.336783		-7.610901		-44.982304		-15.759857		-0.958654		24.381911		25.985527		0.167192		-5.605643		-47.113043		-18.509520		-7.037665		35.517496		-45.855227		-2.884899		-5.225770		-25.108589		2.186209		-0.116043		-60.564643		-22.030536		-38.367951		61.277648		84.179141		-20.319086		3.918371		36.162897		-64.495245		-28.691430		-32.591144		71.713840		108.119634		-20.348728		4.788429		88.806236		
1.234318		-3.846013		13.859581		94.744306		0.006081		0.883731		0.488629		23.785481		-6.986013		-7.028527		-46.903660		-11.367918		-1.094813		24.593814		26.697109		0.177961		-5.218706		-48.837165		-16.974998		-7.079013		35.672013		-46.302345		-2.742669		-5.161751		-23.845357		2.257549		-0.174795		-59.844195		-22.874778		-38.005218		61.818816		84.144504		-20.316146		3.901467		36.245719		-63.641707		-29.583291		-32.338748		72.039587		108.347227		-20.432012		4.797754		89.105689		
1.236970		-3.714778		13.775420		94.846073		0.005843		0.871243		0.485179		24.481669		-6.834559		-6.773526		-49.135003		-5.977230		0.350125		24.130007		27.675371		0.195918		-4.841886		-50.840161		-14.042126		-6.240151		35.757797		-46.381971		-2.547555		-5.090474		-23.037219		2.283914		-0.354396		-59.231611		-23.660836		-37.713582		62.415762		83.965690		-20.469332		3.861316		36.390581		-62.758273		-30.487011		-32.093545		72.352193		108.705030		-20.573005		4.869310		89.578713		
1.239621		-3.578659		13.692877		95.028140		0.005557		0.858793		0.481899		25.133433		-6.657490		-6.743448		-51.410139		0.037771		1.062049		17.446551		28.681379		0.264552		-4.403204		-53.050971		-10.373879		-5.239208		33.511306		-46.490206		-2.309469		-5.102597		-22.114404		2.370098		-0.449496		-58.597267		-24.531539		-37.220669		63.078600		83.376030		-21.211864		3.740688		37.125450		-61.897621		-31.380989		-31.818097		72.746375		109.178192		-21.107093		5.129023		89.954239		
1.242273		-3.561564		13.928456		95.065078		0.005339		0.847405		0.478857		25.438100		-6.478659		-6.604104		-53.462859		4.456813		0.408810		16.656229		29.136177		0.456032		-4.127503		-55.003249		-6.933254		-5.816573		33.319492		-47.040222		-2.235503		-5.085863		-20.872428		2.466424		-0.492388		-57.703592		-25.542284		-36.752162		63.509062		83.423621		-21.227093		3.755051		37.277739		-60.860839		-32.338196		-31.451014		73.021256		109.328995		-21.081035		5.114662		90.000210		
1.244924		-3.389546		13.979836		95.254736		0.005145		0.835307		0.475510		26.026571		-6.399559		-6.984777		-55.801122		9.321671		0.971723		14.176075		29.881041		0.506300		-3.637560		-57.327553		-2.174598		-4.423341		31.259781		-47.242379		-1.941374		-4.995058		-20.145239		2.431236		-0.639554		-57.037938		-26.318481		-36.523657		64.219193		83.410348		-21.420069		3.785742		37.517648		-59.856689		-33.314986		-31.308873		73.387252		109.640478		-20.588299		5.070208		90.000210		
1.247576		-3.342605		14.098680		95.203345		0.004768		0.823816		0.472310		26.616386		-6.399125		-7.178317		-57.947106		13.017075		0.985214		13.487645		30.459876		0.597060		-3.615167		-59.576931		2.060448		-4.569570		30.401873		-47.561331		-1.883599		-4.966269		-19.343831		2.507338		-0.784533		-56.099222		-27.384644		-36.144584		64.750374		83.408573		-21.510582		3.798834		37.592655		-58.681450		-34.172435		-30.902582		73.538161		109.841664		-20.547272		5.097276		90.000210		
